<?xml version="1.0" encoding="UTF-8" standalone="no"?>
<svg
   version="1.1"
   id="Layer_1"
   x="0px"
   y="0px"
   width="1776"
   viewBox="0 0 1776 622"
   enable-background="new 0 0 1835 1132"
   xml:space="preserve"
   sodipodi:docname="logo_9.svg"
   inkscape:version="1.3 (0e150ed, 2023-07-21)"
   height="622"
   xmlns:inkscape="http://www.inkscape.org/namespaces/inkscape"
   xmlns:sodipodi="http://sodipodi.sourceforge.net/DTD/sodipodi-0.dtd"
   xmlns="http://www.w3.org/2000/svg"
   xmlns:svg="http://www.w3.org/2000/svg"><defs
   id="defs3"><rect
     x="784.01453"
     y="523.8327"
     width="837.7854"
     height="220.28726"
     id="rect8" /><rect
     x="770.13812"
     y="300.07635"
     width="933.18542"
     height="206.4109"
     id="rect7" /><rect
     x="772.46002"
     y="299.85791"
     width="876.75842"
     height="498.67673"
     id="rect4" /></defs><sodipodi:namedview
   id="namedview3"
   pagecolor="#ffffff"
   bordercolor="#000000"
   borderopacity="0.25"
   inkscape:showpageshadow="2"
   inkscape:pageopacity="0.0"
   inkscape:pagecheckerboard="0"
   inkscape:deskcolor="#d1d1d1"
   inkscape:zoom="0.57651994"
   inkscape:cx="1320.8563"
   inkscape:cy="530.77089"
   inkscape:window-width="3440"
   inkscape:window-height="1291"
   inkscape:window-x="0"
   inkscape:window-y="25"
   inkscape:window-maximized="1"
   inkscape:current-layer="Layer_1" />&#10;&#10;<path
   fill="#ff8040"
   opacity="1"
   stroke="none"
   d="m 296.73689,289.9177 c 1.8278,-3.19273 3.5905,-6.23813 5.2716,-9.34395 2.6774,-4.9464 5.4064,-9.86101 7.9184,-14.92162 2.869,-5.77991 5.7827,-11.58973 5.884,-18.59505 0.1209,-8.36159 0.1561,-16.72736 0.422,-25.08289 0.2593,-8.14643 0.3971,-16.33739 1.2865,-24.4035 0.6038,-5.47543 -0.7375,-10.49108 -1.0888,-15.72419 -0.3995,-5.9502 -3.5802,-10.73037 -4.6179,-16.37272 -0.5389,-2.92965 -1.1921,-5.84994 -1.4846,-8.81615 -0.2484,-2.51815 0.099,-5.11155 -0.088,-7.6443 -0.3363,-4.55403 0.7886,-8.66235 2.41,-12.67013 2.7333,-6.75628 5.4559,-13.51869 8.2399,-20.24626 0.2761,-0.66701 0.9467,-1.11068 1.4343,-1.65799 0.467,0.65024 1.0916,1.21825 1.3762,1.96375 2.2107,5.79088 4.3443,11.6219 6.5272,17.42744 0.816,2.17043 1.9103,4.22925 2.5091,6.47346 1.3331,4.99617 2.2657,10.14289 3.6837,15.10231 1.0928,3.82219 2.5035,7.55641 4.081,11.14452 2.5548,5.81137 5.4943,11.37811 9.1606,16.34705 1.8246,2.47282 3.9028,4.69165 5.7034,7.18622 3.2116,4.44934 6.3881,8.94154 9.4108,13.56639 2.3779,3.6382 4.4675,7.53217 6.7495,11.25858 2.0618,3.36672 4.1981,6.67153 6.3248,9.98314 2.245,3.49571 4.3434,7.14986 6.8319,10.39266 2.0731,2.70145 4.6508,4.86629 6.9455,7.3441 2.7117,2.92803 5.3707,5.9234 8.0234,8.92481 0.4188,0.47387 0.6839,1.13353 1.1177,1.87389 2.0168,-4.73143 3.7668,-8.68056 2.8938,-13.88868 -1.0468,-6.24531 0.7309,-12.25671 3.204,-17.878 0.985,-2.23869 1.9902,-4.46507 3.1513,-7.06672 2.084,2.80263 1.4424,5.47047 1.1775,8.01324 -0.5296,5.08547 -1.6002,10.15459 -1.6218,15.23524 -0.023,5.47921 1.2452,10.7996 3.88,15.5838 1.4137,2.56712 2.1213,5.69389 3.6463,8.14353 2.6998,4.33682 5.1003,8.98965 5.4685,14.20482 0.3792,5.37266 3.7083,8.41622 5.5259,12.60367 3.461,7.97341 6.9813,15.91445 10.6152,23.78151 3.5967,7.7864 5.3234,16.3606 7.8987,24.57829 1.6538,5.27748 3.3584,10.52157 4.1212,16.09904 0.377,2.75665 0.7847,5.51846 0.974,8.29699 0.352,5.16392 0.8734,10.35408 0.7286,15.51041 -0.1434,5.10884 -0.9046,10.2118 -1.614,15.27534 -0.5685,4.05752 -0.9465,8.31422 -2.317,12.02383 -3.6131,9.78006 -7.692,19.32638 -11.6421,28.93386 -2.0936,5.09189 -4.302,10.11926 -6.4644,15.1724 -2.9924,6.99299 -6.5303,13.62009 -11.3965,18.98896 -5.2559,5.79873 -11.0436,10.90858 -17.4431,14.91816 -3.0235,1.89434 -6.1298,3.77341 -9.3846,4.96376 -7.4373,2.7201 -14.9866,5.02332 -22.4961,7.47151 -2.8236,0.92046 -5.7038,1.63105 -8.4797,2.71276 -1.5613,0.60835 -2.8841,2.0913 -4.4525,2.62827 -2.9375,1.00561 -5.9876,1.55106 -8.9691,2.3933 -6.2351,1.76129 -12.5851,1.59715 -18.8964,1.31039 -7.216,-0.32787 -14.5011,-0.40478 -21.4309,-3.4209 -0.7606,-0.33102 -1.6863,-0.23617 -2.5305,-0.19621 -7.4844,0.35426 -14.5406,-2.00537 -21.6211,-4.41686 -3.0047,-1.02341 -6.1561,-1.81323 -9.268,-1.96995 -5.0152,-0.25259 -9.8134,-1.52614 -14.6086,-3.01948 -3.8298,-1.19269 -7.7926,-1.98974 -11.4508,-3.68642 -2.7366,-1.26923 -5.1733,-3.54773 -7.5809,-5.63361 -3.8613,-3.34534 -7.63536,-6.83575 -11.34876,-10.40367 -1.5373,-1.47712 -3.0088,-3.15102 -4.1912,-5.01257 -5.4802,-8.62822 -9.0246,-18.25237 -10.6115,-28.87103 -0.6291,-4.20943 -1.8208,-8.33439 -2.1642,-12.56353 -0.3834,-4.72115 -0.1223,-9.51732 -0.083,-14.28018 0.015,-1.82278 0.1329,-3.65157 0.3076,-5.46395 0.5067,-5.25571 1.0324,-10.50962 1.6206,-15.75352 0.2415,-2.15245 0.4129,-4.38767 1.0595,-6.38938 1.0096,-3.12549 2.3493,-6.1121 3.636,-9.10651 1.5249,-3.5487 3.0812,-7.08292 4.737,-10.54953 1.4941,-3.12803 3.0108,-6.26102 4.746,-9.20776 4.0193,-6.82543 8.14566,-13.47035 14.41376,-17.97459 2.4403,-1.75366 4.1701,-4.88451 6.1691,-7.44602 1.9728,-2.52783 3.9207,-5.08601 5.8007,-7.70819 2.7009,-3.76723 5.6654,-7.35511 7.9077,-11.47347 2.9601,-5.43658 4.8134,-11.51161 6.0568,-17.86556 1.303,-6.6579 2.3639,-13.28051 2.3768,-20.1614 0.013,-6.8664 0.3392,-13.74306 0.7711,-20.59425 0.4362,-6.91889 -1.7414,-12.90243 -4.4893,-18.68173 -1.6199,-3.40693 -3.5479,-6.62073 -5.4329,-9.84493 -0.915,-1.56506 -2.1137,-2.90181 -3.0482,-4.45371 -0.3021,-0.50164 -0.1716,-1.35948 -0.2182,-1.83964 5.6833,4.33525 11.2039,8.32905 16.5138,12.67496 3.4153,2.79524 7.2419,5.38166 8.8523,10.23478 1.9877,5.9901 4.0778,11.99433 4.7486,18.44282 0.5242,5.03882 0.8854,10.10517 1.175,15.17055 0.098,1.71661 -0.01,3.55157 -0.4296,5.18731 -1.2874,4.98117 0.09,8.93905 3.0553,12.42721 0.7419,0.87267 1.4683,1.76327 2.4498,2.94389 0.6765,-0.90242 1.2724,-1.69722 1.9699,-2.61222 m -27.1651,100.61461 c -0.7882,1.3065 -1.7269,2.52338 -2.3406,3.93374 -4.7677,10.95725 -8.0139,22.43176 -9.1971,34.7411 -0.8895,9.25433 -0.197,18.06854 3.855,26.17809 3.3166,6.63793 5.7666,13.93058 10.597,19.46559 4.2341,4.85192 7.6114,10.63047 12.7146,14.56509 7.0199,5.41247 14.6712,7.7941 22.928,8.05456 1.2941,0.0408 2.6106,-0.47839 3.8916,-0.36168 3.7062,0.33762 7.4035,0.82895 11.095,1.35023 0.8685,0.12263 1.9272,0.32789 2.4981,0.97676 0.9572,1.08789 1.5899,0.83181 2.5564,0.12876 1.7114,-1.24492 3.4272,-2.83258 5.3196,-3.31009 3.4845,-0.87921 7.152,-1.74547 10.6459,-1.37209 5.6205,0.60073 10.3692,-2.36612 15.3263,-4.18943 4.8411,-1.78071 9.3255,-4.90329 13.9445,-7.49055 7.1068,-3.98087 14.3804,-7.61182 20.8689,-12.93982 2.0004,-1.64258 4.0631,-3.34026 5.6434,-5.47266 1.2377,-1.67 1.7237,-4.08141 2.6333,-6.10838 2.9483,-6.57002 4.4516,-13.54658 4.0987,-20.95867 -0.1771,-3.71937 -0.6733,-7.42602 -1.1526,-11.11583 -0.8608,-6.62657 -1.4629,-13.33997 -2.8509,-19.81846 -1.0357,-4.8336 -3.0857,-9.38116 -4.7847,-14.00546 -1.2106,-3.29502 -2.4918,-6.56509 -3.9119,-9.74213 -2.9694,-6.64321 -6.0456,-13.22124 -9.0887,-19.81929 -3.5348,-7.66439 -6.7021,-15.60867 -10.738,-22.89435 -3.4605,-6.24703 -8.0455,-11.62613 -11.9074,-17.5891 -4.9438,-7.6336 -9.4338,-15.69281 -11.0933,-25.22869 -1.2192,-7.00626 -1.7648,-14.17866 -2.4973,-21.29299 -0.507,-4.92447 -0.8064,-9.8779 -1.2466,-14.81252 -0.039,-0.43938 -0.4328,-0.83551 -0.6618,-1.25175 -0.2884,0.42369 -0.8212,0.84456 -0.8248,1.27156 -0.021,2.45273 0,4.91412 0.1621,7.35921 0.411,6.32103 1.0894,12.62654 1.2986,18.95464 0.1669,5.04819 -0.3525,10.12282 -0.2971,15.18167 0.1048,9.57305 -1.9378,18.58866 -4.8222,27.41508 -0.5113,1.56467 -1.0156,3.20757 -1.8429,4.54356 -4.5825,7.40033 -10.3264,13.55418 -16.7603,18.52591 -6.8527,5.2954 -14.1744,9.80474 -21.4684,14.26078 -5.438,3.32221 -11.1688,5.98562 -16.7492,8.99325 -6.0335,3.25187 -11.0737,8.08298 -15.8412,13.87436 z"
   id="path2"
   style="stroke-width:0.427297" />&#10;&#10;<path
   fill="#ffff80"
   opacity="1"
   stroke="none"
   d="m 269.67059,390.41575 c 4.6687,-5.67482 9.709,-10.50593 15.7424,-13.7578 5.5804,-3.00763 11.3112,-5.67104 16.7492,-8.99325 7.2941,-4.45604 14.6157,-8.96538 21.4685,-14.26078 6.4338,-4.97173 12.1778,-11.12558 16.7603,-18.52591 0.8272,-1.33599 1.3315,-2.97889 1.8428,-4.54356 2.8844,-8.82642 4.927,-17.84203 4.8222,-27.41508 -0.055,-5.05885 0.464,-10.13348 0.2971,-15.18167 -0.2092,-6.3281 -0.8876,-12.63361 -1.2986,-18.95464 -0.159,-2.44509 -0.1828,-4.90648 -0.1621,-7.35921 0,-0.427 0.5364,-0.84787 0.8248,-1.27155 0.229,0.41623 0.6227,0.81236 0.6618,1.25174 0.4402,4.93462 0.7396,9.88805 1.2466,14.81252 0.7325,7.11433 1.2781,14.28673 2.4973,21.29299 1.6595,9.53588 6.1495,17.59509 11.0933,25.22869 3.8619,5.96297 8.4469,11.34207 11.9074,17.5891 4.0359,7.28568 7.2032,15.22996 10.7381,22.89435 3.043,6.59805 6.1193,13.17608 9.0887,19.81929 1.42,3.17704 2.7012,6.44711 3.9118,9.74213 1.699,4.6243 3.749,9.17186 4.7847,14.00546 1.3881,6.47849 1.9902,13.19189 2.8509,19.81846 0.4793,3.68981 0.9756,7.39646 1.1526,11.11583 0.3529,7.41209 -1.1504,14.38865 -4.0986,20.95867 -0.9097,2.02697 -1.3956,4.43838 -2.6333,6.10838 -1.5804,2.1324 -3.6431,3.83008 -5.6435,5.47266 -6.4884,5.328 -13.762,8.95895 -20.8689,12.93982 -4.6189,2.58726 -9.1034,5.70984 -13.9445,7.49055 -4.9571,1.82331 -9.7058,4.79016 -15.3263,4.18943 -3.4939,-0.37338 -7.1614,0.49288 -10.6459,1.37209 -1.8923,0.47751 -3.6082,2.06517 -5.3196,3.31009 -0.9665,0.70305 -1.5992,0.95913 -2.5563,-0.12876 -0.571,-0.64887 -1.6296,-0.85413 -2.4982,-0.97676 -3.6914,-0.52128 -7.3888,-1.01261 -11.0949,-1.35023 -1.2811,-0.11671 -2.5976,0.40254 -3.8916,0.36168 -8.2569,-0.26046 -15.9082,-2.64209 -22.9281,-8.05456 -5.1032,-3.93462 -8.4804,-9.71317 -12.7146,-14.56509 -4.8303,-5.53501 -7.2804,-12.82766 -10.597,-19.46559 -4.0519,-8.10955 -4.7445,-16.92376 -3.855,-26.17809 1.1832,-12.30934 4.4294,-23.78385 9.1971,-34.7411 0.6137,-1.41036 1.5524,-2.62724 2.4394,-4.0503 z"
   id="path3"
   style="stroke-width:0.427297" /><rect
   style="fill:#42883f;fill-opacity:1;stroke-width:1;-inkscape-stroke:none"
   id="rect5"
   width="524.75134"
   height="22.815285"
   x="68.877617"
   y="58.3908" /><rect
   style="fill:#42883f;fill-opacity:1;stroke-width:1;-inkscape-stroke:none"
   id="rect5-8"
   width="524.75134"
   height="22.815285"
   x="67.104057"
   y="535.6062" /><rect
   style="fill:#42883f;fill-opacity:1;stroke-width:1;-inkscape-stroke:none"
   id="rect6"
   width="19.55595"
   height="498.67673"
   x="574.81964"
   y="58.989586" /><rect
   style="fill:#42883f;fill-opacity:1;stroke-width:1;-inkscape-stroke:none"
   id="rect6-0"
   width="19.55595"
   height="498.67673"
   x="67.125298"
   y="58.622612" /><path
   d="M 854.71569,433.88493 H 784.46162 V 327.25057 h 70.25407 v 12.60419 h -56.07435 v 29.21882 h 56.07435 v 12.6042 h -56.07435 v 39.60295 h 56.07435 z m 103.84139,-106.63436 -36.80998,52.70845 36.73837,53.92591 h -16.39978 l -29.07559,-43.89984 -29.79174,43.89984 h -15.46878 l 37.16805,-53.28137 -36.30867,-53.35299 h 16.32816 l 28.71751,43.32692 29.36205,-43.32692 z m 100.76192,98.89997 q -3.9388,1.71875 -7.1614,3.22266 -3.1511,1.50391 -8.3074,3.15105 -4.3685,1.36068 -9.5247,2.29167 -5.0847,1.00261 -11.2435,1.00261 -11.6016,0 -21.1264,-3.22267 -9.45313,-3.29427 -16.47138,-10.24091 -6.87502,-6.8034 -10.74221,-17.25915 -3.8672,-10.52737 -3.8672,-24.42063 0,-13.17711 3.72397,-23.56125 3.72396,-10.38414 10.74221,-17.54562 6.8034,-6.94663 16.39981,-10.59898 9.668,-3.65235 21.4128,-3.65235 8.5937,0 17.1159,2.07683 8.5938,2.07682 19.0495,7.3047 v 16.82947 h -1.0742 q -8.8086,-7.37632 -17.474,-10.74222 -8.6654,-3.36589 -18.5482,-3.36589 -8.0925,0 -14.6094,2.64975 -6.4454,2.57813 -11.53,8.09246 -4.94142,5.37111 -7.73439,13.60681 -2.72136,8.16408 -2.72136,18.90629 0,11.24352 3.00782,19.33598 3.07943,8.09247 7.87762,13.17712 5.01301,5.29949 11.67321,7.87762 6.7318,2.50652 14.1797,2.50652 10.2409,0 19.1928,-3.50913 8.9518,-3.50912 16.7578,-10.52737 h 1.0026 z m 90.3062,7.73439 h -70.254 V 327.25057 h 70.254 v 12.60419 h -56.0743 v 29.21882 h 56.0743 v 12.6042 h -56.0743 v 39.60295 h 56.0743 z m 92.2398,-74.40773 q 0,7.08986 -2.5065,13.17712 -2.4349,6.01564 -6.875,10.45575 -5.5143,5.51434 -13.0339,8.30731 -7.5195,2.72136 -18.9779,2.72136 h -14.1797 v 39.74619 h -14.1797 V 327.25057 h 28.9323 q 9.5964,0 16.2566,1.64714 6.6601,1.57552 11.8164,5.01303 6.0873,4.08204 9.3815,10.16929 3.3659,6.08726 3.3659,15.39717 z m -14.7526,0.35808 q 0,-5.51434 -1.9336,-9.59638 -1.9336,-4.08204 -5.8724,-6.66017 -3.4375,-2.22006 -7.8776,-3.15105 -4.3685,-1.00261 -11.1003,-1.00261 h -14.0365 v 42.61078 h 11.9596 q 8.5938,0 13.9649,-1.50391 5.3711,-1.57552 8.737,-4.94142 3.3659,-3.43751 4.7266,-7.23309 1.4323,-3.79558 1.4323,-8.52215 z m 109.4989,-19.98052 h -38.099 v 94.03017 h -14.1797 v -94.03017 h -38.0991 v -12.60419 h 90.3778 z m 51.9207,94.03017 h -42.1095 v -10.88544 h 13.9649 v -84.86348 h -13.9649 v -10.88544 h 42.1095 v 10.88544 h -13.9649 v 84.86348 h 13.9649 z m 103.6266,-94.38824 q 6.5169,7.16147 9.9544,17.54561 3.5092,10.38414 3.5092,23.56126 0,13.17711 -3.5808,23.63286 -3.5091,10.38414 -9.8828,17.33077 -6.5886,7.23309 -15.612,10.88544 -8.9519,3.65236 -20.4818,3.65236 -11.2436,0 -20.4819,-3.72397 -9.1667,-3.72397 -15.612,-10.81383 -6.4453,-7.08986 -9.9544,-17.40238 -3.4375,-10.31253 -3.4375,-23.56125 0,-13.03389 3.4375,-23.34641 3.4375,-10.38414 10.026,-17.76046 6.3021,-7.01825 15.612,-10.74221 9.3816,-3.72397 20.4103,-3.72397 11.4583,0 20.5534,3.79558 9.1667,3.72397 15.5404,10.6706 z m -1.2891,41.10687 q 0,-20.76828 -9.3099,-32.0118 -9.3099,-11.31513 -25.4232,-11.31513 -16.2566,0 -25.5665,11.31513 -9.2383,11.24352 -9.2383,32.0118 0,20.98312 9.4531,32.15502 9.4532,11.10028 25.3517,11.10028 15.8984,0 25.28,-11.10028 9.4531,-11.1719 9.4531,-32.15502 z m 118.5941,53.28137 h -17.5457 l -50.56,-95.39085 v 95.39085 h -13.2487 V 327.25057 h 21.9857 l 46.1199,87.08353 v -87.08353 h 13.2488 z"
   id="path9"
   style="-inkscape-font-specification:'.Noto Nastaliq Urdu UI';fill:#6cba6b"
   transform="translate(-6.9381811,-189.06545)"
   aria-label="EXCEPTION" /><path
   d="M 868.59069,657.64079 H 798.33662 V 551.00643 h 70.25407 v 12.60419 h -56.07435 v 29.21882 h 56.07435 v 12.6042 h -56.07435 v 39.60295 h 56.07435 z m 99.9742,-30.43627 q 0,6.23048 -2.93621,12.31774 -2.86459,6.08725 -8.09247,10.31252 -5.72918,4.58334 -13.39195,7.16148 -7.59117,2.57813 -18.33338,2.57813 -11.52998,0 -20.76828,-2.14845 -9.16669,-2.14844 -18.69145,-6.37371 v -17.76046 h 1.00261 q 8.09247,6.73179 18.69145,10.38414 10.59898,3.65235 19.9089,3.65235 13.17711,0 20.48182,-4.94141 7.37632,-4.94142 7.37632,-13.17712 0,-7.08986 -3.50913,-10.45575 -3.4375,-3.36589 -10.52736,-5.22788 -5.37111,-1.43229 -11.67321,-2.36328 -6.23048,-0.931 -13.24873,-2.36329 -14.17972,-3.00782 -21.05473,-10.24091 -6.8034,-7.3047 -6.8034,-18.97791 0,-13.39196 11.31513,-21.91411 11.31513,-8.59377 28.71751,-8.59377 11.24352,0 20.62505,2.14844 9.38153,2.14844 16.61462,5.29949 v 16.75785 h -1.00261 q -6.08725,-5.15626 -16.0417,-8.52215 -9.88284,-3.43751 -20.26697,-3.43751 -11.38675,0 -18.33338,4.72657 -6.87502,4.72658 -6.87502,12.17451 0,6.66017 3.43751,10.45575 3.43751,3.79559 12.10289,5.8008 4.58335,1.00261 13.03389,2.4349 8.45054,1.4323 14.32295,2.93621 11.88805,3.15104 17.90369,9.52476 6.01564,6.37371 6.01564,17.83207 z m 105.13041,22.70188 q -3.9388,1.71875 -7.1614,3.22266 -3.1511,1.50391 -8.3073,3.15105 -4.3685,1.36068 -9.5248,2.29167 -5.0847,1.00261 -11.2435,1.00261 -11.6016,0 -21.1264,-3.22267 -9.4531,-3.29428 -16.47137,-10.24091 -6.87501,-6.8034 -10.74221,-17.25915 -3.8672,-10.52737 -3.8672,-24.42063 0,-13.17711 3.72397,-23.56125 3.72397,-10.38414 10.74221,-17.54562 6.8034,-6.94663 16.3998,-10.59898 9.668,-3.65235 21.4128,-3.65235 8.5938,0 17.1159,2.07683 8.5938,2.07682 19.0495,7.3047 v 16.82947 h -1.0742 q -8.8086,-7.37632 -17.474,-10.74222 -8.6654,-3.36589 -18.5482,-3.36589 -8.0925,0 -14.6094,2.64975 -6.4453,2.57813 -11.53,8.09246 -4.9414,5.37111 -7.7344,13.60681 -2.7213,8.16408 -2.7213,18.90629 0,11.24352 3.0078,19.33598 3.0794,8.09247 7.8776,13.17712 5.013,5.29949 11.6732,7.87762 6.7318,2.50651 14.1797,2.50651 10.2409,0 19.1928,-3.50912 8.9518,-3.50912 16.7578,-10.52737 h 1.0026 z m 104.1279,7.73439 h -15.1107 l -10.4558,-29.72012 h -46.1199 l -10.4557,29.72012 h -14.3946 l 38.8152,-106.63436 h 18.9063 z m -29.935,-41.89463 -18.6914,-52.35038 -18.7631,52.35038 z m 115.8727,-32.5131 q 0,7.08986 -2.5065,13.17712 -2.4349,6.01564 -6.875,10.45575 -5.5144,5.51434 -13.0339,8.30731 -7.5196,2.72136 -18.9779,2.72136 h -14.1797 v 39.74619 h -14.1798 V 551.00643 h 28.9324 q 9.5964,0 16.2565,1.64714 6.6602,1.57552 11.8165,5.01303 6.0872,4.08204 9.3815,10.16929 3.3659,6.08726 3.3659,15.39717 z m -14.7526,0.35808 q 0,-5.51434 -1.9336,-9.59638 -1.9336,-4.08204 -5.8724,-6.66017 -3.4376,-2.22006 -7.8777,-3.15105 -4.3685,-1.00261 -11.1003,-1.00261 h -14.0364 v 42.61078 h 11.9596 q 8.5938,0 13.9649,-1.50391 5.3711,-1.57552 8.737,-4.94142 3.3659,-3.43751 4.7266,-7.23309 1.4323,-3.79558 1.4323,-8.52215 z m 71.0418,74.04965 h -42.1095 v -10.88544 h 13.9649 v -84.86348 h -13.9649 v -10.88544 h 42.1095 v 10.88544 h -13.9649 v 84.86348 h 13.9649 z m 105.4885,0 h -17.5456 l -50.56,-95.39085 v 95.39085 h -13.2487 V 551.00643 h 21.9857 l 46.1199,87.08353 v -87.08353 h 13.2487 z m 117.3049,-7.87762 q -8.737,4.01042 -19.1211,7.01824 -10.3125,2.93621 -19.9805,2.93621 -12.461,0 -22.8451,-3.43751 -10.3842,-3.43751 -17.6889,-10.31253 -7.3763,-6.94663 -11.3867,-17.33077 -4.0104,-10.45575 -4.0104,-24.42062 0,-25.56647 14.8958,-40.31911 14.9675,-14.82425 41.0353,-14.82425 9.0951,0 18.5482,2.22006 9.5248,2.14844 20.4818,7.37631 v 16.82947 h -1.289 q -2.2201,-1.71875 -6.4454,-4.51173 -4.2252,-2.79297 -8.3073,-4.65496 -4.9414,-2.22005 -11.2435,-3.65235 -6.2305,-1.50391 -14.1797,-1.50391 -17.9037,0 -28.3595,11.52998 -10.3841,11.45836 -10.3841,31.0808 0,20.69666 10.8854,32.22663 10.8855,11.45836 29.6486,11.45836 6.875,0 13.6784,-1.36068 6.875,-1.36068 12.0313,-3.50912 v -26.13938 h -28.5743 v -12.46097 h 42.6107 z"
   id="path8"
   style="-inkscape-font-specification:'.Noto Nastaliq Urdu UI';fill:#6cba6b"
   transform="translate(15.610909,-194.26908)"
   aria-label="ESCAPING" /></svg>
