<svg version="1.1" id="Layer_1" xmlns="http://www.w3.org/2000/svg" xmlns:xlink="http://www.w3.org/1999/xlink" x="0px" y="0px"
	 width="100%" viewBox="0 0 1835 1132" enable-background="new 0 0 1835 1132" xml:space="preserve">
<path fill="#FFFFFF" opacity="1.000000" stroke="none" 
	d="
M1104.000000,1133.000000 
	C736.000061,1133.000000 368.500122,1133.000000 1.000148,1133.000000 
	C1.000099,755.666809 1.000099,378.333588 1.000049,1.000300 
	C612.666443,1.000200 1224.332886,1.000200 1835.999512,1.000100 
	C1835.999634,378.333008 1835.999634,755.666016 1835.999756,1132.999512 
	C1592.166626,1133.000000 1348.333374,1133.000000 1104.000000,1133.000000 
M1099.846069,946.080811 
	C1103.573486,945.553650 1107.573120,945.712219 1110.974243,944.362732 
	C1119.108154,941.135498 1127.172607,937.594543 1134.881958,933.464844 
	C1151.002319,924.829224 1165.604858,913.841492 1178.859375,901.375610 
	C1191.866821,889.142151 1201.150269,873.952576 1209.025879,857.950195 
	C1214.102051,847.635742 1219.428833,837.443359 1224.423584,827.090271 
	C1234.380371,806.451843 1244.731445,785.975220 1253.784546,764.943237 
	C1257.386963,756.574219 1258.377319,746.972839 1259.838867,737.817871 
	C1261.620972,726.654236 1263.407959,715.395081 1263.780029,704.130554 
	C1264.132446,693.458679 1262.836670,682.711121 1261.918701,672.026672 
	C1261.387695,665.845337 1260.118530,659.730042 1259.274170,653.572388 
	C1257.618408,641.497803 1253.179077,630.272705 1248.961060,618.958923 
	C1242.868164,602.616760 1237.971680,585.739624 1230.705811,569.945923 
	C1221.413086,549.746582 1210.369385,530.345398 1199.866943,510.714325 
	C1196.673584,504.745117 1192.302979,499.380066 1189.380615,493.301239 
	C1187.682739,489.769836 1188.656250,484.946564 1186.936890,481.434509 
	C1179.772705,466.801880 1172.333008,452.285126 1164.423462,438.042938 
	C1158.716309,427.766693 1156.004028,416.804840 1155.066895,405.333374 
	C1154.131470,393.881775 1157.262329,382.893463 1159.458862,371.774628 
	C1160.482910,366.590607 1161.736206,360.732330 1156.368164,354.768860 
	C1153.545532,360.266113 1151.125488,364.985535 1148.699951,369.702148 
	C1141.705078,383.304230 1137.961914,397.398315 1140.851562,412.903259 
	C1141.839233,418.203278 1141.256226,423.711609 1138.150269,428.675385 
	C1136.408203,431.459259 1135.350098,434.671143 1133.821777,438.048187 
	C1132.718994,437.031342 1131.529053,435.960693 1130.368286,434.859161 
	C1123.576660,428.413696 1116.861694,421.885284 1109.983154,415.534027 
	C1104.165161,410.162018 1097.629272,405.468658 1092.374634,399.610687 
	C1086.053589,392.564240 1080.724243,384.624176 1075.016724,377.032623 
	C1069.607178,369.837616 1064.220459,362.624573 1058.903320,355.361237 
	C1053.685425,348.233246 1048.588623,341.016479 1043.399414,333.867157 
	C1038.885986,327.648712 1034.673096,321.164978 1029.683716,315.350922 
	C1023.433289,308.067596 1016.161133,301.655457 1009.978943,294.320404 
	C997.947815,280.045929 987.337463,264.739441 979.012451,247.959457 
	C976.246460,242.384247 973.128723,236.888336 971.178650,231.021500 
	C965.507385,213.960144 963.147095,195.934662 954.541565,179.670517 
	C948.097900,167.492294 943.441833,154.371735 937.875793,141.720917 
	C937.264832,140.332367 935.762817,138.196045 934.918823,138.304840 
	C933.489868,138.489029 931.695435,139.916428 931.026794,141.293274 
	C923.910889,155.945969 916.774841,170.596802 910.114746,185.459000 
	C907.472412,191.355530 905.048340,197.656204 904.241882,203.991470 
	C903.235107,211.899429 903.445862,220.082840 904.163635,228.054337 
	C904.817566,235.315948 906.749268,242.475449 908.300781,249.640335 
	C910.855225,261.436951 918.636658,271.427368 919.596558,283.905304 
	C920.470459,295.266083 923.892761,306.171234 922.317322,318.039886 
	C920.108032,334.684387 919.688354,351.596985 919.083313,368.415771 
	C918.390625,387.670349 918.572754,406.956055 917.902161,426.211792 
	C917.550537,436.308258 914.346375,445.799652 909.017883,454.453766 
	C904.738342,461.404236 900.145630,468.166626 896.005859,475.197357 
	C889.946289,485.488892 884.425049,496.104095 878.171875,506.272369 
	C874.456055,512.314575 869.775940,517.763794 865.106445,524.048889 
	C862.093811,520.861938 859.815491,518.449341 857.534485,516.039185 
	C850.796936,508.919922 848.036926,500.744598 850.456787,490.971405 
	C851.317566,487.495026 851.843201,483.861542 851.944763,480.283386 
	C852.577026,458.023132 848.038147,436.722260 840.588989,415.797943 
	C837.415894,406.884857 833.900513,398.593475 826.213867,392.807465 
	C819.554749,387.794983 812.722351,382.999023 805.809753,378.339966 
	C795.005371,371.057709 784.068604,363.971802 772.414612,356.293213 
	C772.655151,357.750092 772.449463,359.501129 773.209839,360.555603 
	C775.628479,363.909668 778.665527,366.827850 780.991394,370.236633 
	C785.594666,376.983276 790.189331,383.770294 794.231079,390.857941 
	C801.189453,403.060516 806.980713,415.640778 806.065002,430.349854 
	C805.109192,445.702881 804.184692,461.086884 804.144714,476.459656 
	C804.105835,491.397766 801.420532,505.777954 798.120300,520.233765 
	C794.959229,534.079895 790.147034,547.291626 782.705017,559.174072 
	C777.169434,568.012451 769.609070,575.597351 762.822815,583.632568 
	C758.035156,589.301331 753.129944,594.878235 748.100403,600.333069 
	C742.894714,605.978943 738.295715,612.727600 731.988647,616.708069 
	C716.028015,626.781250 705.558472,641.489014 695.255005,656.501160 
	C691.308167,662.251648 687.726929,668.278870 684.334351,674.377625 
	C680.047607,682.083618 676.018066,689.938721 672.075928,697.828613 
	C668.810852,704.363525 665.430908,710.891174 662.873718,717.711426 
	C661.241089,722.065674 660.816589,726.921021 660.197083,731.597595 
	C658.690369,742.972412 657.331970,754.367798 656.029602,765.768127 
	C655.581177,769.693665 655.285095,773.656616 655.250671,777.605347 
	C655.160889,787.912903 654.521912,798.291565 655.491943,808.509888 
	C656.365173,817.709412 659.308594,826.693542 660.942566,835.843445 
	C665.037659,858.776428 673.957336,879.613037 687.888794,898.230713 
	C690.903503,902.259399 694.636597,905.884155 698.535400,909.091064 
	C707.977661,916.857605 717.561951,924.471863 727.385681,931.746826 
	C733.400330,936.201111 739.536072,941.000366 746.384399,943.696411 
	C755.710327,947.367676 765.755798,949.227173 775.515259,951.777100 
	C787.710083,954.963257 799.888550,958.048462 812.668884,958.129822 
	C818.023926,958.163879 823.468201,959.147156 828.698425,960.414734 
	C837.234802,962.483582 845.535034,965.572632 854.108582,967.429626 
	C863.357544,969.432861 872.779663,970.724121 882.178528,971.911438 
	C886.966431,972.516296 892.290710,971.006592 896.646118,972.529907 
	C914.689270,978.840027 933.440186,979.153870 952.097290,979.867676 
	C967.764343,980.467041 983.518616,980.757812 998.989136,977.015625 
	C1006.573730,975.180908 1014.230896,973.647217 1021.847107,971.940857 
	C1022.467163,971.801941 1023.039001,971.406494 1023.607361,971.084534 
	C1033.045288,965.737366 1042.992920,962.488586 1053.767090,960.224426 
	C1069.157104,956.990295 1084.001221,951.157898 1099.846069,946.080811 
M247.608856,392.000000 
	C252.418900,391.996368 257.230042,391.928711 262.038635,392.010529 
	C265.517120,392.069672 264.997650,389.625000 264.979034,387.533661 
	C264.960754,385.479736 265.605133,382.965179 262.105804,382.996613 
	C256.135223,383.050262 250.155304,382.845886 244.200226,383.154083 
	C243.085876,383.211731 241.419998,385.010345 241.125275,386.267365 
	C240.092590,390.671875 241.963394,392.825897 247.608856,392.000000 
z"/>
<path fill="#FF8040" opacity="1.000000" stroke="none" 
	d="
M1099.462280,946.258057 
	C1084.001221,951.157898 1069.157104,956.990295 1053.767090,960.224426 
	C1042.992920,962.488586 1033.045288,965.737366 1023.607361,971.084534 
	C1023.039001,971.406494 1022.467163,971.801941 1021.847107,971.940857 
	C1014.230896,973.647217 1006.573730,975.180908 998.989136,977.015625 
	C983.518616,980.757812 967.764343,980.467041 952.097290,979.867676 
	C933.440186,979.153870 914.689270,978.840027 896.646118,972.529907 
	C892.290710,971.006592 886.966431,972.516296 882.178528,971.911438 
	C872.779663,970.724121 863.357544,969.432861 854.108582,967.429626 
	C845.535034,965.572632 837.234802,962.483582 828.698425,960.414734 
	C823.468201,959.147156 818.023926,958.163879 812.668884,958.129822 
	C799.888550,958.048462 787.710083,954.963257 775.515259,951.777100 
	C765.755798,949.227173 755.710327,947.367676 746.384399,943.696411 
	C739.536072,941.000366 733.400330,936.201111 727.385681,931.746826 
	C717.561951,924.471863 707.977661,916.857605 698.535400,909.091064 
	C694.636597,905.884155 690.903503,902.259399 687.888794,898.230713 
	C673.957336,879.613037 665.037659,858.776428 660.942566,835.843445 
	C659.308594,826.693542 656.365173,817.709412 655.491943,808.509888 
	C654.521912,798.291565 655.160889,787.912903 655.250671,777.605347 
	C655.285095,773.656616 655.581177,769.693665 656.029602,765.768127 
	C657.331970,754.367798 658.690369,742.972412 660.197083,731.597595 
	C660.816589,726.921021 661.241089,722.065674 662.873718,717.711426 
	C665.430908,710.891174 668.810852,704.363525 672.075928,697.828613 
	C676.018066,689.938721 680.047607,682.083618 684.334351,674.377625 
	C687.726929,668.278870 691.308167,662.251648 695.255005,656.501160 
	C705.558472,641.489014 716.028015,626.781250 731.988647,616.708069 
	C738.295715,612.727600 742.894714,605.978943 748.100403,600.333069 
	C753.129944,594.878235 758.035156,589.301331 762.822815,583.632568 
	C769.609070,575.597351 777.169434,568.012451 782.705017,559.174072 
	C790.147034,547.291626 794.959229,534.079895 798.120300,520.233765 
	C801.420532,505.777954 804.105835,491.397766 804.144714,476.459656 
	C804.184692,461.086884 805.109192,445.702881 806.065002,430.349854 
	C806.980713,415.640778 801.189453,403.060516 794.231079,390.857941 
	C790.189331,383.770294 785.594666,376.983276 780.991394,370.236633 
	C778.665527,366.827850 775.628479,363.909668 773.209839,360.555603 
	C772.449463,359.501129 772.655151,357.750092 772.414612,356.293213 
	C784.068604,363.971802 795.005371,371.057709 805.809753,378.339966 
	C812.722351,382.999023 819.554749,387.794983 826.213867,392.807465 
	C833.900513,398.593475 837.415894,406.884857 840.588989,415.797943 
	C848.038147,436.722260 852.577026,458.023132 851.944763,480.283386 
	C851.843201,483.861542 851.317566,487.495026 850.456787,490.971405 
	C848.036926,500.744598 850.796936,508.919922 857.534485,516.039185 
	C859.815491,518.449341 862.093811,520.861938 865.106445,524.048889 
	C869.775940,517.763794 874.456055,512.314575 878.171875,506.272369 
	C884.425049,496.104095 889.946289,485.488892 896.005859,475.197357 
	C900.145630,468.166626 904.738342,461.404236 909.017883,454.453766 
	C914.346375,445.799652 917.550537,436.308258 917.902161,426.211792 
	C918.572754,406.956055 918.390625,387.670349 919.083313,368.415771 
	C919.688354,351.596985 920.108032,334.684387 922.317322,318.039886 
	C923.892761,306.171234 920.470459,295.266083 919.596558,283.905304 
	C918.636658,271.427368 910.855225,261.436951 908.300781,249.640335 
	C906.749268,242.475449 904.817566,235.315948 904.163635,228.054337 
	C903.445862,220.082840 903.235107,211.899429 904.241882,203.991470 
	C905.048340,197.656204 907.472412,191.355530 910.114746,185.459000 
	C916.774841,170.596802 923.910889,155.945969 931.026794,141.293274 
	C931.695435,139.916428 933.489868,138.489029 934.918823,138.304840 
	C935.762817,138.196045 937.264832,140.332367 937.875793,141.720917 
	C943.441833,154.371735 948.097900,167.492294 954.541565,179.670517 
	C963.147095,195.934662 965.507385,213.960144 971.178650,231.021500 
	C973.128723,236.888336 976.246460,242.384247 979.012451,247.959457 
	C987.337463,264.739441 997.947815,280.045929 1009.978943,294.320404 
	C1016.161133,301.655457 1023.433289,308.067596 1029.683716,315.350922 
	C1034.673096,321.164978 1038.885986,327.648712 1043.399414,333.867157 
	C1048.588623,341.016479 1053.685425,348.233246 1058.903320,355.361237 
	C1064.220459,362.624573 1069.607178,369.837616 1075.016724,377.032623 
	C1080.724243,384.624176 1086.053589,392.564240 1092.374634,399.610687 
	C1097.629272,405.468658 1104.165161,410.162018 1109.983154,415.534027 
	C1116.861694,421.885284 1123.576660,428.413696 1130.368286,434.859161 
	C1131.529053,435.960693 1132.718994,437.031342 1133.821777,438.048187 
	C1135.350098,434.671143 1136.408203,431.459259 1138.150269,428.675385 
	C1141.256226,423.711609 1141.839233,418.203278 1140.851562,412.903259 
	C1137.961914,397.398315 1141.705078,383.304230 1148.699951,369.702148 
	C1151.125488,364.985535 1153.545532,360.266113 1156.368164,354.768860 
	C1161.736206,360.732330 1160.482910,366.590607 1159.458862,371.774628 
	C1157.262329,382.893463 1154.131470,393.881775 1155.066895,405.333374 
	C1156.004028,416.804840 1158.716309,427.766693 1164.423462,438.042938 
	C1172.333008,452.285126 1179.772705,466.801880 1186.936890,481.434509 
	C1188.656250,484.946564 1187.682739,489.769836 1189.380615,493.301239 
	C1192.302979,499.380066 1196.673584,504.745117 1199.866943,510.714325 
	C1210.369385,530.345398 1221.413086,549.746582 1230.705811,569.945923 
	C1237.971680,585.739624 1242.868164,602.616760 1248.961060,618.958923 
	C1253.179077,630.272705 1257.618408,641.497803 1259.274170,653.572388 
	C1260.118530,659.730042 1261.387695,665.845337 1261.918701,672.026672 
	C1262.836670,682.711121 1264.132446,693.458679 1263.780029,704.130554 
	C1263.407959,715.395081 1261.620972,726.654236 1259.838867,737.817871 
	C1258.377319,746.972839 1257.386963,756.574219 1253.784546,764.943237 
	C1244.731445,785.975220 1234.380371,806.451843 1224.423584,827.090271 
	C1219.428833,837.443359 1214.102051,847.635742 1209.025879,857.950195 
	C1201.150269,873.952576 1191.866821,889.142151 1178.859375,901.375610 
	C1165.604858,913.841492 1151.002319,924.829224 1134.881958,933.464844 
	C1127.172607,937.594543 1119.108154,941.135498 1110.974243,944.362732 
	C1107.573120,945.712219 1103.573486,945.553650 1099.462280,946.258057 
M1135.002197,888.485840 
	C1135.614868,887.132935 1136.156128,885.742065 1136.851074,884.432800 
	C1144.754395,869.543152 1148.961548,853.735535 1147.912720,836.836121 
	C1147.424683,828.971680 1146.144287,821.144165 1144.975342,813.337036 
	C1142.906494,799.519043 1142.114136,785.284241 1138.092773,772.042236 
	C1133.232910,756.038330 1126.444702,740.447632 1118.934326,725.458069 
	C1104.578003,696.804749 1089.489258,668.498535 1073.937500,640.473877 
	C1067.736572,629.299866 1059.779785,619.047729 1052.118774,608.750488 
	C1043.661499,597.382996 1033.814697,586.978394 1026.063110,575.175903 
	C1017.691406,562.429382 1009.586243,549.131714 1007.134155,533.615295 
	C1004.772034,518.668518 1002.855225,503.645020 1001.057678,488.617554 
	C999.765747,477.817169 999.039856,466.949738 997.906860,456.128418 
	C997.801270,455.119843 996.579956,454.228058 995.876587,453.281952 
	C995.260925,454.143951 994.112671,455.008209 994.116333,455.867584 
	C994.139771,461.332550 994.238831,466.809784 994.646362,472.258026 
	C995.667908,485.916931 997.288513,499.545105 997.852539,513.219299 
	C998.254578,522.966797 996.810181,532.784912 997.106995,542.543579 
	C997.751404,563.725708 992.874573,583.773865 985.716003,603.421875 
	C984.252136,607.439514 982.703247,611.627625 980.233398,615.042847 
	C969.067932,630.481995 954.909668,643.038208 939.511230,653.960022 
	C928.915222,661.475708 917.431641,667.865112 905.898254,673.905273 
	C887.907898,683.326904 869.781189,692.567078 851.253662,700.859436 
	C836.341553,707.533569 822.701416,715.756165 810.153992,726.192444 
	C796.253906,737.753845 788.764709,753.351624 783.564697,769.700867 
	C778.422302,785.869019 772.886169,802.004028 771.609009,819.426453 
	C770.195679,838.706665 771.101318,857.071411 780.672241,874.208069 
	C789.506348,890.025635 796.616089,907.138733 809.818970,919.963440 
	C819.987488,929.840637 828.124695,941.600708 840.492981,949.555420 
	C858.498169,961.135559 877.878906,966.451843 898.909424,966.945251 
	C902.011719,967.018005 905.168701,965.882080 908.235779,966.124084 
	C917.758423,966.875549 927.257568,967.956482 936.747620,969.065125 
	C938.809021,969.305969 941.600098,969.562439 942.656677,970.908997 
	C945.301331,974.279297 947.228455,972.700623 949.809875,971.136902 
	C954.023315,968.584595 958.228394,965.040161 962.824280,964.291260 
	C974.015930,962.467712 985.464478,962.286499 996.740417,960.886963 
	C1002.701355,960.147095 1008.530640,958.294189 1014.390747,956.829041 
	C1015.967468,956.434875 1017.417542,955.559753 1018.962708,955.009033 
	C1029.298584,951.325012 1039.875732,948.202942 1049.921875,943.853088 
	C1059.837036,939.560120 1069.288696,934.164307 1078.817017,929.017639 
	C1091.402466,922.219727 1103.956665,915.353027 1116.346069,908.206909 
	C1124.222778,903.663574 1131.810669,898.593201 1135.002197,888.485840 
z"/>
<path fill="#FFFFFF" opacity="1.000000" stroke="none" 
	d="
M247.128357,392.000000 
	C241.963394,392.825897 240.092590,390.671875 241.125275,386.267365 
	C241.419998,385.010345 243.085876,383.211731 244.200226,383.154083 
	C250.155304,382.845886 256.135223,383.050262 262.105804,382.996613 
	C265.605133,382.965179 264.960754,385.479736 264.979034,387.533661 
	C264.997650,389.625000 265.517120,392.069672 262.038635,392.010529 
	C257.230042,391.928711 252.418900,391.996368 247.128357,392.000000 
z"/>
<path fill="#FFFF80" opacity="1.000000" stroke="none" 
	d="
M1134.937134,888.860229 
	C1131.810669,898.593201 1124.222778,903.663574 1116.346069,908.206909 
	C1103.956665,915.353027 1091.402466,922.219727 1078.817017,929.017639 
	C1069.288696,934.164307 1059.837036,939.560120 1049.921875,943.853088 
	C1039.875732,948.202942 1029.298584,951.325012 1018.962708,955.009033 
	C1017.417542,955.559753 1015.967468,956.434875 1014.390747,956.829041 
	C1008.530640,958.294189 1002.701355,960.147095 996.740417,960.886963 
	C985.464478,962.286499 974.015930,962.467712 962.824280,964.291260 
	C958.228394,965.040161 954.023315,968.584595 949.809875,971.136902 
	C947.228455,972.700623 945.301331,974.279297 942.656677,970.908997 
	C941.600098,969.562439 938.809021,969.305969 936.747620,969.065125 
	C927.257568,967.956482 917.758423,966.875549 908.235779,966.124084 
	C905.168701,965.882080 902.011719,967.018005 898.909424,966.945251 
	C877.878906,966.451843 858.498169,961.135559 840.492981,949.555420 
	C828.124695,941.600708 819.987488,929.840637 809.818970,919.963440 
	C796.616089,907.138733 789.506348,890.025635 780.672241,874.208069 
	C771.101318,857.071411 770.195679,838.706665 771.609009,819.426453 
	C772.886169,802.004028 778.422302,785.869019 783.564697,769.700867 
	C788.764709,753.351624 796.253906,737.753845 810.153992,726.192444 
	C822.701416,715.756165 836.341553,707.533569 851.253662,700.859436 
	C869.781189,692.567078 887.907898,683.326904 905.898254,673.905273 
	C917.431641,667.865112 928.915222,661.475708 939.511230,653.960022 
	C954.909668,643.038208 969.067932,630.481995 980.233398,615.042847 
	C982.703247,611.627625 984.252136,607.439514 985.716003,603.421875 
	C992.874573,583.773865 997.751404,563.725708 997.106995,542.543579 
	C996.810181,532.784912 998.254578,522.966797 997.852539,513.219299 
	C997.288513,499.545105 995.667908,485.916931 994.646362,472.258026 
	C994.238831,466.809784 994.139771,461.332550 994.116333,455.867584 
	C994.112671,455.008209 995.260925,454.143951 995.876587,453.281982 
	C996.579956,454.228058 997.801270,455.119843 997.906860,456.128418 
	C999.039856,466.949738 999.765747,477.817169 1001.057678,488.617554 
	C1002.855225,503.645020 1004.772034,518.668518 1007.134155,533.615295 
	C1009.586243,549.131714 1017.691406,562.429382 1026.063110,575.175903 
	C1033.814697,586.978394 1043.661499,597.382996 1052.118774,608.750488 
	C1059.779785,619.047729 1067.736572,629.299866 1073.937500,640.473877 
	C1089.489258,668.498535 1104.578003,696.804749 1118.934326,725.458069 
	C1126.444702,740.447632 1133.232910,756.038330 1138.092773,772.042236 
	C1142.114136,785.284241 1142.906494,799.519043 1144.975342,813.337036 
	C1146.144287,821.144165 1147.424683,828.971680 1147.912720,836.836121 
	C1148.961548,853.735535 1144.754395,869.543152 1136.851074,884.432800 
	C1136.156128,885.742065 1135.614868,887.132935 1134.937134,888.860229 
z"/>
</svg>