<svg version="1.1" id="Layer_1" xmlns="http://www.w3.org/2000/svg" xmlns:xlink="http://www.w3.org/1999/xlink" x="0px" y="0px"
	 width="100%" viewBox="0 0 1835 1132" enable-background="new 0 0 1835 1132" xml:space="preserve">
<path fill="#000000" opacity="1.000000" stroke="none" 
	d="
M1104.000000,1133.000000 
	C736.000061,1133.000000 368.500122,1133.000000 1.000148,1133.000000 
	C1.000099,755.666809 1.000099,378.333588 1.000049,1.000300 
	C612.666443,1.000200 1224.332886,1.000200 1835.999512,1.000100 
	C1835.999634,378.333008 1835.999634,755.666016 1835.999756,1132.999512 
	C1592.166626,1133.000000 1348.333374,1133.000000 1104.000000,1133.000000 
M869.477234,518.036865 
	C867.969238,519.756897 866.461243,521.476929 864.749023,523.429871 
	C862.265076,520.874878 860.426636,518.947510 858.549133,517.058960 
	C851.044495,509.510193 847.558594,500.944885 850.816772,490.165070 
	C851.886719,486.625153 852.152405,482.654083 851.903992,478.939148 
	C851.171082,467.977112 850.256897,457.012939 848.930359,446.108368 
	C847.232727,432.153107 841.942993,419.159271 836.912476,406.196014 
	C832.836853,395.693329 823.152344,390.096008 814.508911,384.046783 
	C801.070557,374.641754 787.098877,365.998718 772.715637,356.616760 
	C772.833435,357.655884 772.503296,359.512329 773.267761,360.597931 
	C775.632812,363.956421 778.666382,366.849304 780.982117,370.236267 
	C785.752808,377.213806 790.632202,384.168823 794.731812,391.541809 
	C801.686157,404.048859 807.197388,416.997925 806.093445,431.971191 
	C805.000305,446.797943 804.174561,461.679810 804.141968,476.539459 
	C804.109375,491.430481 801.424255,505.762573 798.126770,520.171021 
	C794.979858,533.921692 790.289551,547.068726 782.798157,558.834106 
	C777.123169,567.746704 769.620667,575.511292 762.785034,583.664001 
	C758.027100,589.338684 753.097412,594.874878 748.104675,600.345398 
	C743.045410,605.888794 738.667786,612.664307 732.491760,616.459412 
	C716.628418,626.207092 706.185303,640.587463 696.013123,655.358459 
	C691.621521,661.735535 687.783081,668.515686 684.001892,675.285095 
	C679.811401,682.787231 675.872620,690.435669 672.013367,698.115479 
	C668.756897,704.595703 665.366455,711.059082 662.811218,717.822998 
	C661.174805,722.154907 660.741150,726.992188 660.129944,731.650330 
	C658.641174,742.998718 657.310791,754.368774 656.028564,765.742737 
	C655.586426,769.664917 655.288086,773.622620 655.249939,777.567322 
	C655.150269,787.874695 654.489502,798.254150 655.459778,808.471252 
	C656.328979,817.623596 659.344971,826.550476 660.937012,835.660156 
	C664.953125,858.640137 673.923279,879.467896 687.792725,898.140320 
	C690.785095,902.168945 694.509277,905.791443 698.399963,908.988098 
	C707.797852,916.709473 717.349304,924.263123 727.121521,931.502808 
	C733.214722,936.016907 739.381653,940.947815 746.307495,943.694580 
	C755.565796,947.366394 765.594727,949.091309 775.287354,951.672424 
	C787.423035,954.904175 799.566528,957.660278 812.258972,958.206909 
	C820.134766,958.546082 828.110168,960.255310 835.714600,962.470093 
	C853.634094,967.688843 871.492004,972.795349 890.433594,972.028687 
	C892.570068,971.942200 894.913025,971.736938 896.837769,972.453308 
	C914.376038,978.980530 932.813232,979.146973 951.075439,979.856506 
	C967.048340,980.477112 983.118958,980.832336 998.898804,977.020691 
	C1006.444458,975.197998 1014.163757,974.017578 1021.598022,971.841309 
	C1025.567383,970.679260 1028.915161,967.469971 1032.866333,966.153442 
	C1039.891724,963.812500 1047.181030,962.274719 1054.327026,960.282715 
	C1073.332275,954.984558 1092.437988,950.000122 1111.260498,944.113525 
	C1119.497803,941.537476 1127.359253,937.470947 1135.011108,933.371399 
	C1151.207275,924.694214 1165.854858,913.635925 1179.156494,901.086792 
	C1191.471924,889.467957 1200.425781,875.126160 1207.999023,859.992554 
	C1213.471436,849.057007 1219.060547,838.177185 1224.359009,827.157776 
	C1234.356079,806.366089 1244.679077,785.706787 1253.823120,764.541626 
	C1257.291504,756.513611 1258.248169,747.301636 1259.687012,738.520691 
	C1261.482300,727.562622 1263.408813,716.519226 1263.771851,705.463135 
	C1264.138306,694.304260 1262.818726,683.072144 1261.927856,671.896851 
	C1261.448608,665.883789 1260.416992,659.906921 1259.462891,653.941223 
	C1257.532349,641.870972 1253.218262,630.522156 1249.032715,619.101074 
	C1242.515259,601.317078 1238.145264,582.761536 1229.042725,565.910889 
	C1219.845825,548.885681 1210.936646,531.700378 1202.177612,514.445007 
	C1197.577637,505.382904 1189.152222,498.796295 1188.192505,487.169250 
	C1187.260742,475.883026 1181.185547,465.813782 1174.352783,456.428406 
	C1170.493286,451.127106 1168.702515,444.360443 1165.124512,438.804901 
	C1158.456421,428.451355 1155.245972,416.937408 1155.304932,405.079803 
	C1155.359619,394.084686 1158.069092,383.114532 1159.409546,372.109009 
	C1160.079834,366.606171 1161.703735,360.832672 1156.429443,354.767456 
	C1153.491089,360.397705 1150.946899,365.215851 1148.454224,370.060638 
	C1142.195190,382.225739 1137.696167,395.235077 1140.345337,408.750641 
	C1142.554688,420.021606 1138.125977,428.567963 1133.021729,438.807312 
	C1131.923950,437.205078 1131.253052,435.777527 1130.193115,434.752014 
	C1123.479492,428.256622 1116.750122,421.774292 1109.887329,415.437714 
	C1104.079834,410.075439 1097.556030,405.390503 1092.309448,399.544250 
	C1086.011475,392.526459 1080.700806,384.618469 1075.019165,377.053345 
	C1069.636841,369.886658 1064.230347,362.734680 1059.012329,355.448700 
	C1053.237061,347.384338 1047.948730,338.957336 1041.930664,331.083862 
	C1034.280762,321.075165 1026.241577,311.353546 1018.113647,301.724670 
	C1013.556641,296.326141 1008.296936,291.524353 1003.679260,286.172882 
	C994.400513,275.419525 986.961304,263.372467 980.495483,250.796021 
	C976.503235,243.030945 972.932983,234.949661 970.167236,226.678009 
	C966.578674,215.945267 964.218323,204.807190 960.844421,193.994904 
	C959.328918,189.138184 956.559570,184.682648 954.494324,179.985611 
	C948.969971,167.421768 943.570129,154.802780 937.975342,142.270660 
	C937.255005,140.657318 935.674316,139.428085 934.492310,138.020844 
	C933.258484,139.205322 931.561096,140.165466 930.862549,141.608963 
	C923.816528,156.168182 916.926208,170.802811 910.008789,185.424149 
	C905.905273,194.097458 903.058472,202.988312 903.909424,212.843750 
	C904.382629,218.324905 903.502686,223.937317 904.131287,229.386887 
	C904.871704,235.806076 906.524841,242.125931 907.888489,248.466019 
	C910.514832,260.676697 918.564575,271.021545 919.575562,283.898438 
	C920.464722,295.223480 923.859253,306.077911 922.331238,317.927368 
	C920.080261,335.383331 919.731628,353.109497 919.075439,370.739288 
	C918.402405,388.821594 918.313232,406.926086 918.007324,425.021515 
	C917.751038,440.181824 910.376953,452.754913 903.115967,465.263306 
	C896.758667,476.215027 889.851868,486.850800 883.075928,497.555359 
	C878.821350,504.276703 874.360291,510.867310 869.477234,518.036865 
z"/>
<path fill="#FF8040" opacity="1.000000" stroke="none" 
	d="
M869.734558,517.776733 
	C874.360291,510.867310 878.821350,504.276703 883.075928,497.555359 
	C889.851868,486.850800 896.758667,476.215027 903.115967,465.263306 
	C910.376953,452.754913 917.751038,440.181824 918.007324,425.021515 
	C918.313232,406.926086 918.402405,388.821594 919.075439,370.739288 
	C919.731628,353.109497 920.080261,335.383331 922.331238,317.927368 
	C923.859253,306.077911 920.464722,295.223480 919.575562,283.898438 
	C918.564575,271.021545 910.514832,260.676697 907.888489,248.466019 
	C906.524841,242.125931 904.871704,235.806076 904.131287,229.386887 
	C903.502686,223.937317 904.382629,218.324905 903.909424,212.843750 
	C903.058472,202.988312 905.905273,194.097458 910.008789,185.424149 
	C916.926208,170.802811 923.816528,156.168182 930.862549,141.608963 
	C931.561096,140.165466 933.258484,139.205322 934.492310,138.020874 
	C935.674316,139.428085 937.255005,140.657318 937.975342,142.270660 
	C943.570129,154.802780 948.969971,167.421768 954.494324,179.985611 
	C956.559570,184.682648 959.328918,189.138184 960.844421,193.994904 
	C964.218323,204.807190 966.578674,215.945267 970.167236,226.678009 
	C972.932983,234.949661 976.503235,243.030945 980.495483,250.796021 
	C986.961304,263.372467 994.400513,275.419525 1003.679260,286.172882 
	C1008.296936,291.524353 1013.556641,296.326141 1018.113647,301.724670 
	C1026.241577,311.353546 1034.280762,321.075165 1041.930664,331.083862 
	C1047.948730,338.957336 1053.237061,347.384338 1059.012329,355.448700 
	C1064.230347,362.734680 1069.636841,369.886658 1075.019165,377.053345 
	C1080.700806,384.618469 1086.011475,392.526459 1092.309448,399.544250 
	C1097.556030,405.390503 1104.079834,410.075439 1109.887329,415.437714 
	C1116.750122,421.774292 1123.479492,428.256622 1130.193115,434.752014 
	C1131.253052,435.777527 1131.923950,437.205078 1133.021729,438.807312 
	C1138.125977,428.567963 1142.554688,420.021606 1140.345337,408.750641 
	C1137.696167,395.235077 1142.195190,382.225739 1148.454224,370.060638 
	C1150.946899,365.215851 1153.491089,360.397705 1156.429443,354.767456 
	C1161.703735,360.832672 1160.079834,366.606171 1159.409546,372.109009 
	C1158.069092,383.114532 1155.359619,394.084686 1155.304932,405.079803 
	C1155.245972,416.937408 1158.456421,428.451355 1165.124512,438.804901 
	C1168.702515,444.360443 1170.493286,451.127106 1174.352783,456.428406 
	C1181.185547,465.813782 1187.260742,475.883026 1188.192505,487.169250 
	C1189.152222,498.796295 1197.577637,505.382904 1202.177612,514.445007 
	C1210.936646,531.700378 1219.845825,548.885681 1229.042725,565.910889 
	C1238.145264,582.761536 1242.515259,601.317078 1249.032715,619.101074 
	C1253.218262,630.522156 1257.532349,641.870972 1259.462891,653.941223 
	C1260.416992,659.906921 1261.448608,665.883789 1261.927856,671.896851 
	C1262.818726,683.072144 1264.138306,694.304260 1263.771851,705.463135 
	C1263.408813,716.519226 1261.482300,727.562622 1259.687012,738.520691 
	C1258.248169,747.301636 1257.291504,756.513611 1253.823120,764.541626 
	C1244.679077,785.706787 1234.356079,806.366089 1224.359009,827.157776 
	C1219.060547,838.177185 1213.471436,849.057007 1207.999023,859.992554 
	C1200.425781,875.126160 1191.471924,889.467957 1179.156494,901.086792 
	C1165.854858,913.635925 1151.207275,924.694214 1135.011108,933.371399 
	C1127.359253,937.470947 1119.497803,941.537476 1111.260498,944.113525 
	C1092.437988,950.000122 1073.332275,954.984558 1054.327026,960.282715 
	C1047.181030,962.274719 1039.891724,963.812500 1032.866333,966.153442 
	C1028.915161,967.469971 1025.567383,970.679260 1021.598022,971.841309 
	C1014.163757,974.017578 1006.444458,975.197998 998.898804,977.020691 
	C983.118958,980.832336 967.048340,980.477112 951.075439,979.856506 
	C932.813232,979.146973 914.376038,978.980530 896.837769,972.453308 
	C894.913025,971.736938 892.570068,971.942200 890.433594,972.028687 
	C871.492004,972.795349 853.634094,967.688843 835.714600,962.470093 
	C828.110168,960.255310 820.134766,958.546082 812.258972,958.206909 
	C799.566528,957.660278 787.423035,954.904175 775.287354,951.672424 
	C765.594727,949.091309 755.565796,947.366394 746.307495,943.694580 
	C739.381653,940.947815 733.214722,936.016907 727.121521,931.502808 
	C717.349304,924.263123 707.797852,916.709473 698.399963,908.988098 
	C694.509277,905.791443 690.785095,902.168945 687.792725,898.140320 
	C673.923279,879.467896 664.953125,858.640137 660.937012,835.660156 
	C659.344971,826.550476 656.328979,817.623596 655.459778,808.471252 
	C654.489502,798.254150 655.150269,787.874695 655.249939,777.567322 
	C655.288086,773.622620 655.586426,769.664917 656.028564,765.742737 
	C657.310791,754.368774 658.641174,742.998718 660.129944,731.650330 
	C660.741150,726.992188 661.174805,722.154907 662.811218,717.822998 
	C665.366455,711.059082 668.756897,704.595703 672.013367,698.115479 
	C675.872620,690.435669 679.811401,682.787231 684.001892,675.285095 
	C687.783081,668.515686 691.621521,661.735535 696.013123,655.358459 
	C706.185303,640.587463 716.628418,626.207092 732.491760,616.459412 
	C738.667786,612.664307 743.045410,605.888794 748.104675,600.345398 
	C753.097412,594.874878 758.027100,589.338684 762.785034,583.664001 
	C769.620667,575.511292 777.123169,567.746704 782.798157,558.834106 
	C790.289551,547.068726 794.979858,533.921692 798.126770,520.171021 
	C801.424255,505.762573 804.109375,491.430481 804.141968,476.539459 
	C804.174561,461.679810 805.000305,446.797943 806.093445,431.971191 
	C807.197388,416.997925 801.686157,404.048859 794.731812,391.541809 
	C790.632202,384.168823 785.752808,377.213806 780.982117,370.236267 
	C778.666382,366.849304 775.632812,363.956421 773.267761,360.597931 
	C772.503296,359.512329 772.833435,357.655884 772.715637,356.616760 
	C787.098877,365.998718 801.070557,374.641754 814.508911,384.046783 
	C823.152344,390.096008 832.836853,395.693329 836.912476,406.196014 
	C841.942993,419.159271 847.232727,432.153107 848.930359,446.108368 
	C850.256897,457.012939 851.171082,467.977112 851.903992,478.939148 
	C852.152405,482.654083 851.886719,486.625153 850.816772,490.165070 
	C847.558594,500.944885 851.044495,509.510193 858.549133,517.058960 
	C860.426636,518.947510 862.265076,520.874878 864.749023,523.429871 
	C866.461243,521.476929 867.969238,519.756897 869.734558,517.776733 
M800.984680,735.518127 
	C798.989990,738.345520 796.614258,740.979004 795.061157,744.031189 
	C782.994934,767.743896 774.779358,792.576050 771.784912,819.214844 
	C769.533691,839.242249 771.286499,858.317200 781.541138,875.867188 
	C789.934875,890.232422 796.135559,906.014526 808.360168,917.992920 
	C819.076111,928.493042 827.623230,940.998474 840.538574,949.513428 
	C858.304626,961.226624 877.668640,966.380737 898.565247,966.944397 
	C901.840271,967.032837 905.172119,965.909119 908.414124,966.161682 
	C917.793701,966.892334 927.151062,967.955627 936.493469,969.083740 
	C938.691528,969.349121 941.370850,969.793335 942.815796,971.197571 
	C945.238220,973.551880 946.839417,972.997681 949.285400,971.476196 
	C953.616760,968.782043 957.959167,965.346191 962.748413,964.312805 
	C971.567078,962.410095 980.848755,960.535400 989.691223,961.343445 
	C1003.915588,962.643494 1015.933716,956.222900 1028.479248,952.277039 
	C1040.731079,948.423401 1052.080444,941.665771 1063.770142,936.066650 
	C1081.756348,927.451599 1100.164429,919.593811 1116.585571,908.063416 
	C1121.648193,904.508667 1126.868408,900.834717 1130.868042,896.219971 
	C1134.000488,892.605896 1135.230347,887.387329 1137.532471,883.000732 
	C1144.993896,868.782471 1148.798462,853.684387 1147.905396,837.643799 
	C1147.457275,829.594666 1146.201416,821.573059 1144.988403,813.587891 
	C1142.809937,799.247253 1141.286133,784.718689 1137.773193,770.698486 
	C1135.152100,760.238037 1129.963867,750.396606 1125.664062,740.389099 
	C1122.600342,733.258301 1119.357788,726.181519 1115.763916,719.306030 
	C1108.248901,704.929382 1100.463501,690.693787 1092.762085,676.414856 
	C1083.816040,659.828247 1075.800171,642.635925 1065.586060,626.868896 
	C1056.828125,613.349609 1045.224365,601.708618 1035.450684,588.804077 
	C1022.938843,572.284119 1011.575317,554.843079 1007.375549,534.206360 
	C1004.289856,519.044006 1002.909058,503.522125 1001.055237,488.125916 
	C999.772095,477.468811 999.014465,466.749023 997.900452,456.069946 
	C997.801270,455.119080 996.805054,454.261810 996.225464,453.361023 
	C995.495667,454.277924 994.147217,455.188751 994.138123,456.112823 
	C994.085754,461.420807 994.145996,466.747528 994.548340,472.038971 
	C995.588440,485.718414 997.305359,499.364227 997.834778,513.058960 
	C998.257202,523.983826 996.942871,534.965881 997.083008,545.913818 
	C997.348145,566.630981 992.178711,586.141785 984.878906,605.243164 
	C983.584839,608.629272 982.308594,612.184692 980.214905,615.075928 
	C968.617432,631.091064 954.080505,644.408691 937.797668,655.168091 
	C920.454712,666.627930 901.924866,676.386658 883.465027,686.030029 
	C869.702454,693.219666 855.198792,698.983582 841.075867,705.492432 
	C825.806274,712.529846 813.050354,722.984924 800.984680,735.518127 
z"/>
<path fill="#FFFF80" opacity="1.000000" stroke="none" 
	d="
M801.234619,735.265869 
	C813.050354,722.984924 825.806274,712.529846 841.075867,705.492432 
	C855.198792,698.983582 869.702454,693.219666 883.465027,686.030029 
	C901.924866,676.386658 920.454712,666.627930 937.797668,655.168091 
	C954.080505,644.408691 968.617432,631.091064 980.214905,615.075928 
	C982.308594,612.184692 983.584839,608.629272 984.878906,605.243164 
	C992.178711,586.141785 997.348145,566.630981 997.083008,545.913818 
	C996.942871,534.965881 998.257202,523.983826 997.834778,513.058960 
	C997.305359,499.364227 995.588440,485.718414 994.548340,472.038971 
	C994.145996,466.747528 994.085754,461.420807 994.138123,456.112823 
	C994.147217,455.188751 995.495667,454.277924 996.225464,453.361053 
	C996.805054,454.261810 997.801270,455.119080 997.900452,456.069946 
	C999.014465,466.749023 999.772095,477.468811 1001.055237,488.125916 
	C1002.909058,503.522125 1004.289856,519.044006 1007.375549,534.206360 
	C1011.575317,554.843079 1022.938843,572.284119 1035.450684,588.804077 
	C1045.224365,601.708618 1056.828125,613.349609 1065.586060,626.868896 
	C1075.800171,642.635925 1083.816040,659.828247 1092.762085,676.414856 
	C1100.463501,690.693787 1108.248901,704.929382 1115.763916,719.306030 
	C1119.357788,726.181519 1122.600342,733.258301 1125.664062,740.389099 
	C1129.963867,750.396606 1135.152100,760.238037 1137.773193,770.698486 
	C1141.286133,784.718689 1142.809937,799.247253 1144.988403,813.587891 
	C1146.201416,821.573059 1147.457275,829.594666 1147.905396,837.643799 
	C1148.798462,853.684387 1144.993896,868.782471 1137.532471,883.000732 
	C1135.230347,887.387329 1134.000488,892.605896 1130.868042,896.219971 
	C1126.868408,900.834717 1121.648193,904.508667 1116.585571,908.063416 
	C1100.164429,919.593811 1081.756348,927.451599 1063.770142,936.066650 
	C1052.080444,941.665771 1040.731079,948.423401 1028.479248,952.277039 
	C1015.933716,956.222900 1003.915588,962.643494 989.691223,961.343445 
	C980.848755,960.535400 971.567078,962.410095 962.748413,964.312805 
	C957.959167,965.346191 953.616760,968.782043 949.285400,971.476196 
	C946.839417,972.997681 945.238220,973.551880 942.815796,971.197571 
	C941.370850,969.793335 938.691528,969.349121 936.493469,969.083740 
	C927.151062,967.955627 917.793701,966.892334 908.414124,966.161682 
	C905.172119,965.909119 901.840271,967.032837 898.565247,966.944397 
	C877.668640,966.380737 858.304626,961.226624 840.538574,949.513428 
	C827.623230,940.998474 819.076111,928.493042 808.360168,917.992920 
	C796.135559,906.014526 789.934875,890.232422 781.541138,875.867188 
	C771.286499,858.317200 769.533691,839.242249 771.784912,819.214844 
	C774.779358,792.576050 782.994934,767.743896 795.061157,744.031189 
	C796.614258,740.979004 798.989990,738.345520 801.234619,735.265869 
z"/>
</svg>