<?xml version="1.0" encoding="UTF-8" standalone="no"?>
<svg
   version="1.1"
   id="Layer_1"
   x="0px"
   y="0px"
   width="1776"
   viewBox="0 0 1776 622"
   enable-background="new 0 0 1835 1132"
   xml:space="preserve"
   sodipodi:docname="logo_8.svg"
   inkscape:version="1.3 (0e150ed, 2023-07-21)"
   height="622"
   xmlns:inkscape="http://www.inkscape.org/namespaces/inkscape"
   xmlns:sodipodi="http://sodipodi.sourceforge.net/DTD/sodipodi-0.dtd"
   xmlns="http://www.w3.org/2000/svg"
   xmlns:svg="http://www.w3.org/2000/svg"><defs
   id="defs3"><rect
     x="784.01453"
     y="523.8327"
     width="837.7854"
     height="220.28726"
     id="rect8" /><rect
     x="770.13812"
     y="300.07635"
     width="933.18542"
     height="206.4109"
     id="rect7" /><rect
     x="772.46002"
     y="299.85791"
     width="876.75842"
     height="498.67673"
     id="rect4" /></defs><sodipodi:namedview
   id="namedview3"
   pagecolor="#ffffff"
   bordercolor="#000000"
   borderopacity="0.25"
   inkscape:showpageshadow="2"
   inkscape:pageopacity="0.0"
   inkscape:pagecheckerboard="0"
   inkscape:deskcolor="#d1d1d1"
   inkscape:zoom="0.57651994"
   inkscape:cx="1320.8563"
   inkscape:cy="530.77089"
   inkscape:window-width="3440"
   inkscape:window-height="1291"
   inkscape:window-x="0"
   inkscape:window-y="25"
   inkscape:window-maximized="1"
   inkscape:current-layer="Layer_1" />&#10;&#10;<path
   fill="#ff8040"
   opacity="1"
   stroke="none"
   d="m 296.73689,289.9177 c 1.8278,-3.19273 3.5905,-6.23813 5.2716,-9.34395 2.6774,-4.9464 5.4064,-9.86101 7.9184,-14.92162 2.869,-5.77991 5.7827,-11.58973 5.884,-18.59505 0.1209,-8.36159 0.1561,-16.72736 0.422,-25.08289 0.2593,-8.14643 0.3971,-16.33739 1.2865,-24.4035 0.6038,-5.47543 -0.7375,-10.49108 -1.0888,-15.72419 -0.3995,-5.9502 -3.5802,-10.73037 -4.6179,-16.37272 -0.5389,-2.92965 -1.1921,-5.84994 -1.4846,-8.81615 -0.2484,-2.51815 0.099,-5.11155 -0.088,-7.6443 -0.3363,-4.55403 0.7886,-8.66235 2.41,-12.67013 2.7333,-6.75628 5.4559,-13.51869 8.2399,-20.24626 0.2761,-0.66701 0.9467,-1.11068 1.4343,-1.65799 0.467,0.65024 1.0916,1.21825 1.3762,1.96375 2.2107,5.79088 4.3443,11.6219 6.5272,17.42744 0.816,2.17043 1.9103,4.22925 2.5091,6.47346 1.3331,4.99617 2.2657,10.14289 3.6837,15.10231 1.0928,3.82219 2.5035,7.55641 4.081,11.14452 2.5548,5.81137 5.4943,11.37811 9.1606,16.34705 1.8246,2.47282 3.9028,4.69165 5.7034,7.18622 3.2116,4.44934 6.3881,8.94154 9.4108,13.56639 2.3779,3.6382 4.4675,7.53217 6.7495,11.25858 2.0618,3.36672 4.1981,6.67153 6.3248,9.98314 2.245,3.49571 4.3434,7.14986 6.8319,10.39266 2.0731,2.70145 4.6508,4.86629 6.9455,7.3441 2.7117,2.92803 5.3707,5.9234 8.0234,8.92481 0.4188,0.47387 0.6839,1.13353 1.1177,1.87389 2.0168,-4.73143 3.7668,-8.68056 2.8938,-13.88868 -1.0468,-6.24531 0.7309,-12.25671 3.204,-17.878 0.985,-2.23869 1.9902,-4.46507 3.1513,-7.06672 2.084,2.80263 1.4424,5.47047 1.1775,8.01324 -0.5296,5.08547 -1.6002,10.15459 -1.6218,15.23524 -0.023,5.47921 1.2452,10.7996 3.88,15.5838 1.4137,2.56712 2.1213,5.69389 3.6463,8.14353 2.6998,4.33682 5.1003,8.98965 5.4685,14.20482 0.3792,5.37266 3.7083,8.41622 5.5259,12.60367 3.461,7.97341 6.9813,15.91445 10.6152,23.78151 3.5967,7.7864 5.3234,16.3606 7.8987,24.57829 1.6538,5.27748 3.3584,10.52157 4.1212,16.09904 0.377,2.75665 0.7847,5.51846 0.974,8.29699 0.352,5.16392 0.8734,10.35408 0.7286,15.51041 -0.1434,5.10884 -0.9046,10.2118 -1.614,15.27534 -0.5685,4.05752 -0.9465,8.31422 -2.317,12.02383 -3.6131,9.78006 -7.692,19.32638 -11.6421,28.93386 -2.0936,5.09189 -4.302,10.11926 -6.4644,15.1724 -2.9924,6.99299 -6.5303,13.62009 -11.3965,18.98896 -5.2559,5.79873 -11.0436,10.90858 -17.4431,14.91816 -3.0235,1.89434 -6.1298,3.77341 -9.3846,4.96376 -7.4373,2.7201 -14.9866,5.02332 -22.4961,7.47151 -2.8236,0.92046 -5.7038,1.63105 -8.4797,2.71276 -1.5613,0.60835 -2.8841,2.0913 -4.4525,2.62827 -2.9375,1.00561 -5.9876,1.55106 -8.9691,2.3933 -6.2351,1.76129 -12.5851,1.59715 -18.8964,1.31039 -7.216,-0.32787 -14.5011,-0.40478 -21.4309,-3.4209 -0.7606,-0.33102 -1.6863,-0.23617 -2.5305,-0.19621 -7.4844,0.35426 -14.5406,-2.00537 -21.6211,-4.41686 -3.0047,-1.02341 -6.1561,-1.81323 -9.268,-1.96995 -5.0152,-0.25259 -9.8134,-1.52614 -14.6086,-3.01948 -3.8298,-1.19269 -7.7926,-1.98974 -11.4508,-3.68642 -2.7366,-1.26923 -5.1733,-3.54773 -7.5809,-5.63361 -3.8613,-3.34534 -7.63536,-6.83575 -11.34876,-10.40367 -1.5373,-1.47712 -3.0088,-3.15102 -4.1912,-5.01257 -5.4802,-8.62822 -9.0246,-18.25237 -10.6115,-28.87103 -0.6291,-4.20943 -1.8208,-8.33439 -2.1642,-12.56353 -0.3834,-4.72115 -0.1223,-9.51732 -0.083,-14.28018 0.015,-1.82278 0.1329,-3.65157 0.3076,-5.46395 0.5067,-5.25571 1.0324,-10.50962 1.6206,-15.75352 0.2415,-2.15245 0.4129,-4.38767 1.0595,-6.38938 1.0096,-3.12549 2.3493,-6.1121 3.636,-9.10651 1.5249,-3.5487 3.0812,-7.08292 4.737,-10.54953 1.4941,-3.12803 3.0108,-6.26102 4.746,-9.20776 4.0193,-6.82543 8.14566,-13.47035 14.41376,-17.97459 2.4403,-1.75366 4.1701,-4.88451 6.1691,-7.44602 1.9728,-2.52783 3.9207,-5.08601 5.8007,-7.70819 2.7009,-3.76723 5.6654,-7.35511 7.9077,-11.47347 2.9601,-5.43658 4.8134,-11.51161 6.0568,-17.86556 1.303,-6.6579 2.3639,-13.28051 2.3768,-20.1614 0.013,-6.8664 0.3392,-13.74306 0.7711,-20.59425 0.4362,-6.91889 -1.7414,-12.90243 -4.4893,-18.68173 -1.6199,-3.40693 -3.5479,-6.62073 -5.4329,-9.84493 -0.915,-1.56506 -2.1137,-2.90181 -3.0482,-4.45371 -0.3021,-0.50164 -0.1716,-1.35948 -0.2182,-1.83964 5.6833,4.33525 11.2039,8.32905 16.5138,12.67496 3.4153,2.79524 7.2419,5.38166 8.8523,10.23478 1.9877,5.9901 4.0778,11.99433 4.7486,18.44282 0.5242,5.03882 0.8854,10.10517 1.175,15.17055 0.098,1.71661 -0.01,3.55157 -0.4296,5.18731 -1.2874,4.98117 0.09,8.93905 3.0553,12.42721 0.7419,0.87267 1.4683,1.76327 2.4498,2.94389 0.6765,-0.90242 1.2724,-1.69722 1.9699,-2.61222 m -27.1651,100.61461 c -0.7882,1.3065 -1.7269,2.52338 -2.3406,3.93374 -4.7677,10.95725 -8.0139,22.43176 -9.1971,34.7411 -0.8895,9.25433 -0.197,18.06854 3.855,26.17809 3.3166,6.63793 5.7666,13.93058 10.597,19.46559 4.2341,4.85192 7.6114,10.63047 12.7146,14.56509 7.0199,5.41247 14.6712,7.7941 22.928,8.05456 1.2941,0.0408 2.6106,-0.47839 3.8916,-0.36168 3.7062,0.33762 7.4035,0.82895 11.095,1.35023 0.8685,0.12263 1.9272,0.32789 2.4981,0.97676 0.9572,1.08789 1.5899,0.83181 2.5564,0.12876 1.7114,-1.24492 3.4272,-2.83258 5.3196,-3.31009 3.4845,-0.87921 7.152,-1.74547 10.6459,-1.37209 5.6205,0.60073 10.3692,-2.36612 15.3263,-4.18943 4.8411,-1.78071 9.3255,-4.90329 13.9445,-7.49055 7.1068,-3.98087 14.3804,-7.61182 20.8689,-12.93982 2.0004,-1.64258 4.0631,-3.34026 5.6434,-5.47266 1.2377,-1.67 1.7237,-4.08141 2.6333,-6.10838 2.9483,-6.57002 4.4516,-13.54658 4.0987,-20.95867 -0.1771,-3.71937 -0.6733,-7.42602 -1.1526,-11.11583 -0.8608,-6.62657 -1.4629,-13.33997 -2.8509,-19.81846 -1.0357,-4.8336 -3.0857,-9.38116 -4.7847,-14.00546 -1.2106,-3.29502 -2.4918,-6.56509 -3.9119,-9.74213 -2.9694,-6.64321 -6.0456,-13.22124 -9.0887,-19.81929 -3.5348,-7.66439 -6.7021,-15.60867 -10.738,-22.89435 -3.4605,-6.24703 -8.0455,-11.62613 -11.9074,-17.5891 -4.9438,-7.6336 -9.4338,-15.69281 -11.0933,-25.22869 -1.2192,-7.00626 -1.7648,-14.17866 -2.4973,-21.29299 -0.507,-4.92447 -0.8064,-9.8779 -1.2466,-14.81252 -0.039,-0.43938 -0.4328,-0.83551 -0.6618,-1.25175 -0.2884,0.42369 -0.8212,0.84456 -0.8248,1.27156 -0.021,2.45273 0,4.91412 0.1621,7.35921 0.411,6.32103 1.0894,12.62654 1.2986,18.95464 0.1669,5.04819 -0.3525,10.12282 -0.2971,15.18167 0.1048,9.57305 -1.9378,18.58866 -4.8222,27.41508 -0.5113,1.56467 -1.0156,3.20757 -1.8429,4.54356 -4.5825,7.40033 -10.3264,13.55418 -16.7603,18.52591 -6.8527,5.2954 -14.1744,9.80474 -21.4684,14.26078 -5.438,3.32221 -11.1688,5.98562 -16.7492,8.99325 -6.0335,3.25187 -11.0737,8.08298 -15.8412,13.87436 z"
   id="path2"
   style="stroke-width:0.427297" />&#10;&#10;<path
   fill="#ffff80"
   opacity="1"
   stroke="none"
   d="m 269.67059,390.41575 c 4.6687,-5.67482 9.709,-10.50593 15.7424,-13.7578 5.5804,-3.00763 11.3112,-5.67104 16.7492,-8.99325 7.2941,-4.45604 14.6157,-8.96538 21.4685,-14.26078 6.4338,-4.97173 12.1778,-11.12558 16.7603,-18.52591 0.8272,-1.33599 1.3315,-2.97889 1.8428,-4.54356 2.8844,-8.82642 4.927,-17.84203 4.8222,-27.41508 -0.055,-5.05885 0.464,-10.13348 0.2971,-15.18167 -0.2092,-6.3281 -0.8876,-12.63361 -1.2986,-18.95464 -0.159,-2.44509 -0.1828,-4.90648 -0.1621,-7.35921 0,-0.427 0.5364,-0.84787 0.8248,-1.27155 0.229,0.41623 0.6227,0.81236 0.6618,1.25174 0.4402,4.93462 0.7396,9.88805 1.2466,14.81252 0.7325,7.11433 1.2781,14.28673 2.4973,21.29299 1.6595,9.53588 6.1495,17.59509 11.0933,25.22869 3.8619,5.96297 8.4469,11.34207 11.9074,17.5891 4.0359,7.28568 7.2032,15.22996 10.7381,22.89435 3.043,6.59805 6.1193,13.17608 9.0887,19.81929 1.42,3.17704 2.7012,6.44711 3.9118,9.74213 1.699,4.6243 3.749,9.17186 4.7847,14.00546 1.3881,6.47849 1.9902,13.19189 2.8509,19.81846 0.4793,3.68981 0.9756,7.39646 1.1526,11.11583 0.3529,7.41209 -1.1504,14.38865 -4.0986,20.95867 -0.9097,2.02697 -1.3956,4.43838 -2.6333,6.10838 -1.5804,2.1324 -3.6431,3.83008 -5.6435,5.47266 -6.4884,5.328 -13.762,8.95895 -20.8689,12.93982 -4.6189,2.58726 -9.1034,5.70984 -13.9445,7.49055 -4.9571,1.82331 -9.7058,4.79016 -15.3263,4.18943 -3.4939,-0.37338 -7.1614,0.49288 -10.6459,1.37209 -1.8923,0.47751 -3.6082,2.06517 -5.3196,3.31009 -0.9665,0.70305 -1.5992,0.95913 -2.5563,-0.12876 -0.571,-0.64887 -1.6296,-0.85413 -2.4982,-0.97676 -3.6914,-0.52128 -7.3888,-1.01261 -11.0949,-1.35023 -1.2811,-0.11671 -2.5976,0.40254 -3.8916,0.36168 -8.2569,-0.26046 -15.9082,-2.64209 -22.9281,-8.05456 -5.1032,-3.93462 -8.4804,-9.71317 -12.7146,-14.56509 -4.8303,-5.53501 -7.2804,-12.82766 -10.597,-19.46559 -4.0519,-8.10955 -4.7445,-16.92376 -3.855,-26.17809 1.1832,-12.30934 4.4294,-23.78385 9.1971,-34.7411 0.6137,-1.41036 1.5524,-2.62724 2.4394,-4.0503 z"
   id="path3"
   style="stroke-width:0.427297" /><rect
   style="fill:#42883f;fill-opacity:1;stroke-width:1;-inkscape-stroke:none"
   id="rect5"
   width="524.75134"
   height="22.815285"
   x="68.877617"
   y="58.3908" /><rect
   style="fill:#42883f;fill-opacity:1;stroke-width:1;-inkscape-stroke:none"
   id="rect5-8"
   width="524.75134"
   height="22.815285"
   x="67.104057"
   y="535.6062" /><rect
   style="fill:#42883f;fill-opacity:1;stroke-width:1;-inkscape-stroke:none"
   id="rect6"
   width="19.55595"
   height="498.67673"
   x="574.81964"
   y="58.989586" /><rect
   style="fill:#42883f;fill-opacity:1;stroke-width:1;-inkscape-stroke:none"
   id="rect6-0"
   width="19.55595"
   height="498.67673"
   x="67.125298"
   y="58.622612" /><text
   xml:space="preserve"
   id="text6"
   style="font-style:normal;font-variant:normal;font-weight:normal;font-stretch:normal;font-size:146.667px;line-height:normal;font-family:'.Noto Nastaliq Urdu UI';-inkscape-font-specification:'.Noto Nastaliq Urdu UI';text-decoration-color:#000000;white-space:pre;shape-inside:url(#rect7);fill:#6cba6b;fill-opacity:1;stroke-width:1;-inkscape-stroke:none"
   transform="translate(-6.9381811,-189.06545)"><tspan
     x="770.13867"
     y="433.88493"
     id="tspan1">EXCEPTION</tspan></text><text
   xml:space="preserve"
   id="text7"
   style="font-style:normal;font-variant:normal;font-weight:normal;font-stretch:normal;font-size:146.667px;line-height:normal;font-family:'.Noto Nastaliq Urdu UI';-inkscape-font-specification:'.Noto Nastaliq Urdu UI';text-decoration-color:#000000;white-space:pre;shape-inside:url(#rect8);fill:#6cba6b;fill-opacity:1;stroke-width:1;-inkscape-stroke:none"
   transform="translate(15.610909,-194.26908)"><tspan
     x="784.01367"
     y="657.64079"
     id="tspan2">ESCAPING</tspan></text></svg>
